<?xml version="1.0" standalone="no"?>
<!DOCTYPE svg PUBLIC "-//W3C//DTD SVG 20010904//EN"
 "http://www.w3.org/TR/2001/REC-SVG-20010904/DTD/svg10.dtd">
<svg version="1.0" xmlns="http://www.w3.org/2000/svg"
 width="2048.000000pt" height="2048.000000pt" viewBox="0 0 2048.000000 2048.000000"
 preserveAspectRatio="xMidYMid meet">

<g transform="translate(0.000000,2048.000000) scale(0.100000,-0.100000)"
fill="#000000" stroke="none">
<path d="M6585 13933 c-101 -121 -183 -294 -208 -442 l-12 -74 -50 -17 c-123
-42 -189 -96 -242 -197 -82 -156 -125 -389 -144 -788 -14 -291 -12 -283 -52
-289 -213 -30 -257 -45 -257 -87 0 -14 68 -58 100 -65 3 0 12 -3 20 -7 8 -3
50 -18 93 -34 61 -22 79 -33 84 -51 3 -13 3 -150 0 -305 -5 -278 -19 -415 -58
-562 -18 -68 -81 -176 -138 -238 -101 -109 -181 -153 -541 -299 -134 -54 -296
-125 -359 -156 -406 -200 -653 -469 -779 -848 -71 -213 -140 -544 -167 -801
-20 -180 -22 -551 -6 -718 36 -349 121 -693 249 -999 l42 -98 -20 -28 c-49
-69 -93 -181 -98 -250 -4 -61 -1 -76 22 -125 69 -140 260 -216 618 -245 90 -8
568 -10 1483 -8 1498 4 1439 2 1497 67 32 35 35 59 13 101 -27 52 -112 89
-270 114 -94 15 -256 30 -195 17 34 -6 33 -7 -20 -13 -197 -25 -556 -16 -655
15 -37 11 -29 12 101 15 l140 3 -7 68 c-12 107 -61 185 -125 197 -38 7 -45 21
-68 154 -31 174 -41 335 -40 675 0 436 29 802 84 1070 35 174 38 179 162 301
140 137 215 238 283 378 107 219 136 365 140 706 3 189 1 236 -6 181 -12 -99
-34 -155 -76 -192 -41 -35 -61 -32 -111 15 -58 55 -123 208 -187 441 -82 300
-95 691 -29 899 16 51 21 56 67 75 61 26 124 20 138 -13 9 -19 9 -19 5 4 -18
100 -59 297 -66 314 -9 21 -9 21 -9 0 -1 -19 -11 -24 -88 -38 -246 -45 -592
-47 -805 -5 l-58 12 0 110 0 110 44 -6 c164 -23 326 -28 502 -18 173 11 306
24 362 37 19 4 23 10 18 27 -10 43 -27 301 -21 333 l6 32 107 7 c238 14 485
54 537 85 28 17 84 70 74 70 -2 0 -28 -9 -58 -20 -62 -24 -82 -20 -112 21 -24
34 -27 70 -14 196 l8 82 -31 29 c-18 17 -79 63 -136 103 -104 73 -105 74 -83
91 21 16 21 18 6 45 -10 15 -35 41 -58 57 -53 39 -125 39 -234 2 -42 -14 -85
-26 -95 -26 -28 0 -120 67 -137 100 -32 62 -12 106 66 146 l50 25 105 -26 c58
-14 106 -25 107 -25 1 0 1 51 -2 112 -4 119 9 216 40 307 11 30 17 56 14 59
-7 7 -84 -53 -149 -116 -67 -65 -145 -177 -165 -240 -8 -23 -18 -42 -23 -42
-4 0 -8 2 -8 3 0 2 -9 39 -21 83 -16 61 -23 123 -28 272 -3 105 -3 192 0 192
3 0 6 7 6 15 0 8 -2 15 -3 15 -2 0 -33 -35 -69 -77z m16 -60 c-12 -20 -14 -14
-5 12 4 9 9 14 11 11 3 -2 0 -13 -6 -23z m359 -777 c0 -7 15 -17 33 -20 30 -7
31 -8 13 -21 -10 -8 -23 -16 -29 -18 -6 -2 -6 -11 2 -24 11 -21 9 -22 -26 -16
-45 6 -182 42 -201 52 -9 5 21 18 75 34 102 29 133 33 133 13z m154 -28 c9
-12 16 -27 16 -34 0 -13 -43 -34 -70 -34 -17 0 -18 4 -10 26 6 14 10 39 10 55
0 26 2 29 19 19 11 -5 27 -20 35 -32z m-545 -4242 c15 -18 7 -37 -57 -125 -92
-127 -125 -214 -158 -416 l-7 -40 -14 50 c-8 28 -15 91 -16 140 -3 159 61 301
167 373 53 35 68 39 85 18z m-999 -400 c31 -39 28 -227 -6 -298 -22 -48 -40
-54 -61 -21 -34 52 -20 242 23 311 17 26 27 28 44 8z m420 -806 c0 -132 71
-542 133 -766 l33 -122 -36 24 c-56 37 -119 47 -248 41 -87 -4 -132 -1 -177
10 -70 18 -253 12 -370 -11 -38 -8 -72 -12 -74 -10 -11 10 197 250 399 459
184 190 265 288 298 356 15 32 30 58 35 58 4 1 7 -17 7 -39z m566 -854 c21
-16 16 -30 -9 -20 -16 6 -32 34 -19 34 5 0 17 -6 28 -14z m-2151 -140 c20 -40
32 -72 26 -74 -18 -6 -87 39 -104 68 -17 28 -23 110 -10 124 11 11 46 -37 88
-118z"/>
<path d="M7565 12958 c11 -6 22 -12 24 -14 2 -2 -8 -13 -22 -25 -34 -26 -34
-39 1 -70 27 -25 107 -79 117 -79 3 0 5 21 5 48 0 45 -10 75 -24 73 -28 -4
-37 1 -32 17 4 12 -5 23 -34 40 -21 12 -43 22 -47 22 -4 0 1 -6 12 -12z"/>
<path d="M2595 12570 c-123 -25 -307 -91 -403 -145 -44 -25 -83 -45 -86 -45
-3 0 -19 -11 -34 -25 -16 -14 -37 -32 -48 -41 -16 -12 -12 -12 21 2 212 86
374 135 570 170 139 25 506 26 650 1 182 -32 351 -82 565 -166 54 -21 55 -21
30 -1 -69 57 -302 151 -445 180 -33 6 -114 24 -180 40 -218 52 -469 64 -640
30z"/>
<path d="M1117 12229 c-66 -62 -97 -98 -97 -113 0 -31 50 -106 95 -143 l37
-31 85 126 c47 70 89 130 94 133 12 7 -13 58 -46 93 -40 43 -61 35 -168 -65z"/>
<path d="M4090 12188 c134 -76 309 -156 363 -165 23 -3 49 2 82 17 26 12 56
23 66 25 25 5 91 37 86 42 -6 6 -149 53 -177 58 -94 18 -147 26 -155 25 -6 -2
-12 -1 -15 0 -13 4 -47 12 -62 13 -10 1 -18 6 -18 11 0 5 -2 7 -6 4 -3 -3 -22
-2 -42 3 -35 8 -224 39 -239 39 -5 0 48 -32 117 -72z"/>
<path d="M3618 11707 c10 -18 31 -70 46 -115 25 -74 54 -123 127 -216 23 -28
216 -128 362 -186 42 -16 55 -26 47 -34 -5 -7 -57 -46 -115 -87 -57 -41 -105
-77 -105 -81 0 -4 7 -13 15 -21 7 -8 17 -26 20 -40 10 -37 36 -56 109 -82 l65
-23 72 49 c39 27 97 69 128 93 l56 44 199 7 199 7 79 41 c108 57 125 74 124
122 -1 35 -6 42 -46 67 -83 51 -203 64 -354 39 -91 -15 -295 16 -371 57 -16 9
-33 15 -37 14 -5 -1 -8 2 -8 6 0 5 -21 24 -47 43 -27 18 -68 52 -93 75 -44 41
-247 149 -414 220 l-78 34 20 -33z"/>
<path d="M1952 11660 c-81 -54 -232 -179 -275 -228 -18 -20 -18 -21 3 -32 22
-12 39 -46 45 -90 2 -14 4 -26 4 -27 2 -6 70 23 93 40 14 11 31 17 36 13 14
-8 121 105 158 168 47 79 69 198 39 210 -8 3 -52 -20 -103 -54z"/>
<path d="M2600 11654 c-67 -12 -157 -39 -247 -75 -25 -10 -38 -26 -57 -69 -40
-89 -50 -139 -50 -250 -1 -115 22 -210 71 -302 22 -41 34 -50 112 -86 255
-119 457 -172 651 -172 69 0 92 4 120 21 241 146 357 460 268 725 l-23 69 -95
37 c-105 40 -246 83 -306 93 -38 6 -38 5 20 -25 79 -43 146 -112 186 -194 30
-60 35 -81 38 -161 3 -70 0 -106 -13 -146 -118 -365 -613 -404 -782 -61 -37
75 -38 78 -38 191 0 105 3 121 27 174 53 113 170 208 288 233 l55 12 -75 0
c-41 0 -109 -6 -150 -14z"/>
<path d="M2978 11653 c7 -3 16 -2 19 1 4 3 -2 6 -13 5 -11 0 -14 -3 -6 -6z"/>
<path d="M2870 11595 c0 -8 16 -53 35 -101 19 -47 35 -103 35 -124 0 -23 8
-46 21 -61 12 -13 28 -34 36 -46 20 -30 25 -29 43 10 30 66 13 205 -34 275
-24 37 -37 47 -61 48 -16 1 -40 4 -52 7 -16 4 -23 1 -23 -8z"/>
<path d="M7011 11424 c0 -11 3 -14 6 -6 3 7 2 16 -1 19 -3 4 -6 -2 -5 -13z"/>
<path d="M7021 11374 c0 -11 3 -14 6 -6 3 7 2 16 -1 19 -3 4 -6 -2 -5 -13z"/>
<path d="M7031 11324 c0 -11 3 -14 6 -6 3 7 2 16 -1 19 -3 4 -6 -2 -5 -13z"/>
<path d="M7041 11274 c0 -11 3 -14 6 -6 3 7 2 16 -1 19 -3 4 -6 -2 -5 -13z"/>
<path d="M2559 11203 c-8 -2 -20 -22 -26 -44 -10 -39 -10 -40 38 -83 84 -76
174 -103 239 -72 52 24 117 66 103 66 -6 0 -14 8 -18 19 -9 29 -139 89 -228
106 -43 8 -82 14 -85 14 -4 -1 -14 -3 -23 -6z"/>
<path d="M7111 10924 c0 -11 3 -14 6 -6 3 7 2 16 -1 19 -3 4 -6 -2 -5 -13z"/>
<path d="M2320 10813 c2 -35 102 -90 146 -81 16 3 13 10 -22 46 -36 36 -48 42
-83 42 -22 0 -41 -3 -41 -7z"/>
<path d="M7151 10704 c0 -11 3 -14 6 -6 3 7 2 16 -1 19 -3 4 -6 -2 -5 -13z"/>
<path d="M7162 10640 c0 -14 2 -19 5 -12 2 6 2 18 0 25 -3 6 -5 1 -5 -13z"/>
<path d="M7172 10570 c0 -14 2 -19 5 -12 2 6 2 18 0 25 -3 6 -5 1 -5 -13z"/>
<path d="M2550 10446 c0 -111 7 -134 42 -141 61 -14 163 -84 240 -167 l77 -83
2 140 c0 77 5 151 9 165 7 21 8 17 9 -20 1 -56 31 -220 40 -220 17 0 313 62
359 76 l53 15 -7 117 c-4 64 -8 118 -8 119 -1 2 -29 -2 -62 -7 -32 -6 -130
-10 -218 -10 -168 0 -329 24 -460 70 -33 11 -63 20 -68 20 -4 0 -8 -33 -8 -74z"/>
<path d="M7182 10495 c0 -16 2 -22 5 -12 2 9 2 23 0 30 -3 6 -5 -1 -5 -18z"/>
<path d="M7192 10400 c0 -19 2 -27 5 -17 2 9 2 25 0 35 -3 9 -5 1 -5 -18z"/>
</g>
</svg>
